<svg xmlns="http://www.w3.org/2000/svg" viewBox="0 0 64 64" fill="none" role="img" aria-label="Rebuzzle">
  <rect width="64" height="64" rx="14" fill="#171717"/>
  <path fill="#fafafa" fill-rule="evenodd" d="M18 14h16.2c7.35 0 12.3 4.55 12.3 11.15 0 5.05-2.85 8.85-7.55 10.35L48.2 50H38.7L30.4 36.9H25.5V50H18V14ZM30 22.8H32.55C32.55 20.75 33.7 19.4 35.5 19.4C37.3 19.4 38.45 20.75 38.45 22.8H41C42.45 22.8 43.55 23.9 43.55 25.35V26.5C45.45 26.5 46.75 27.7 46.75 29.55C46.75 31.4 45.45 32.6 43.55 32.6V33.75C43.55 35.2 42.45 36.3 41 36.3H38.45C38.45 38.35 37.3 39.7 35.5 39.7C33.7 39.7 32.55 38.35 32.55 36.3H30C28.55 36.3 27.45 35.2 27.45 33.75V32.6C27.45 32.6 31.1 32.6 31.1 29.55C31.1 26.5 27.45 26.5 27.45 26.5V25.35C27.45 23.9 28.55 22.8 30 22.8Z"/>
  <path fill="#0070f3" d="M30 22.8H32.55C32.55 20.75 33.7 19.4 35.5 19.4C37.3 19.4 38.45 20.75 38.45 22.8H41C42.45 22.8 43.55 23.9 43.55 25.35V26.5C45.45 26.5 46.75 27.7 46.75 29.55C46.75 31.4 45.45 32.6 43.55 32.6V33.75C43.55 35.2 42.45 36.3 41 36.3H38.45C38.45 38.35 37.3 39.7 35.5 39.7C33.7 39.7 32.55 38.35 32.55 36.3H30C28.55 36.3 27.45 35.2 27.45 33.75V32.6C27.45 32.6 31.1 32.6 31.1 29.55C31.1 26.5 27.45 26.5 27.45 26.5V25.35C27.45 23.9 28.55 22.8 30 22.8Z"/>
</svg>
